Coordinates
version=1
nRows=60
nColumns=12
inDegrees=yes

Units are S.I. units (second, meters, Newtons, ...)
Angles are in degrees

endheader
time	SC_y	SC_z	SC_x	AC_y	AC_z	AC_x	GH_y	GH_z	GH_yy	EL_x	PS_y
       0.0              -22.49         -3.578          77.19          53.44         -2.056          -15.5         -122.6          -14.8         -87.77          14.51          83.49
   0.04037              -22.49         -3.573          77.18          53.44         -2.057         -15.49         -122.6         -14.79         -87.74          14.51           83.5
   0.08075              -22.49         -3.567          77.17          53.44         -2.058         -15.49         -122.6         -14.78          -87.7          14.51          83.51
    0.1211              -22.49          -3.56          77.16          53.43         -2.059         -15.48         -122.6         -14.77         -87.67          14.51          83.53
    0.1615              -22.49         -3.553          77.15          53.43         -2.061         -15.48         -122.6         -14.76         -87.63          14.51          83.54
    0.2019              -22.48         -3.546          77.14          53.43         -2.062         -15.47         -122.6         -14.75         -87.59           14.5          83.55
    0.2422              -22.48         -3.538          77.13          53.43         -2.064         -15.47         -122.5         -14.74         -87.54           14.5          83.57
    0.2826              -22.48          -3.53          77.12          53.43         -2.065         -15.46         -122.5         -14.73          -87.5           14.5          83.59
     0.323              -22.48         -3.521           77.1          53.42         -2.067         -15.45         -122.5         -14.72         -87.44           14.5           83.6
    0.3634              -22.47         -3.511          77.09          53.42         -2.069         -15.44         -122.5          -14.7         -87.39           14.5          83.62
    0.4037              -22.47         -3.501          77.07          53.42          -2.07         -15.44         -122.5         -14.69         -87.33           14.5          83.64
    0.4441              -22.47          -3.49          77.06          53.41         -2.072         -15.43         -122.5         -14.67         -87.27          14.49          83.66
    0.4845              -22.46         -3.478          77.04          53.41         -2.075         -15.42         -122.4         -14.65          -87.2          14.49          83.69
    0.5249              -22.46         -3.465          77.02          53.41         -2.077         -15.41         -122.4         -14.63         -87.13          14.49          83.71
    0.5652              -22.46         -3.451           77.0           53.4          -2.08          -15.4         -122.4         -14.61         -87.05          14.49          83.74
    0.6056              -22.45         -3.436          76.98           53.4         -2.082         -15.38         -122.4         -14.59         -86.96          14.48          83.77
     0.646              -22.45         -3.419          76.95          53.39         -2.086         -15.37         -122.3         -14.57         -86.87          14.48           83.8
    0.6863              -22.44         -3.402          76.93          53.39         -2.089         -15.36         -122.3         -14.54         -86.77          14.48          83.84
    0.7267              -22.44         -3.382           76.9          53.38         -2.093         -15.34         -122.2         -14.51         -86.66          14.47          83.87
    0.7671              -22.43          -3.36          76.87          53.38         -2.096         -15.32         -122.2         -14.48         -86.53          14.47          83.92
    0.8075              -22.42         -3.337          76.83          53.37         -2.101          -15.3         -122.2         -14.45          -86.4          14.47          83.96
    0.8478              -22.42         -3.311          76.79          53.36         -2.106         -15.28         -122.1         -14.41         -86.25          14.46          84.01
    0.8882              -22.41         -3.282          76.75          53.36         -2.111         -15.26         -122.1         -14.37         -86.09          14.46          84.07
    0.9286               -22.4         -3.251           76.7          53.35         -2.117         -15.23         -122.0         -14.32         -85.91          14.45          84.13
     0.969              -22.39         -3.215          76.65          53.34         -2.123         -15.21         -121.9         -14.27         -85.71          14.44           84.2
     1.009              -22.38         -3.176          76.59          53.33         -2.131         -15.17         -121.9         -14.21         -85.49          14.44          84.28
      1.05              -22.37         -3.132          76.53          53.31         -2.139         -15.14         -121.8         -14.15         -85.24          14.43          84.36
      1.09              -22.35         -3.082          76.46           53.3         -2.148          -15.1         -121.7         -14.08         -84.95          14.42          84.46
      1.13              -22.34         -3.026          76.37          53.29         -2.158         -15.05         -121.6          -14.0         -84.64          14.41          84.57
     1.171              -22.32         -2.963          76.28          53.27          -2.17          -15.0         -121.4          -13.9         -84.28           14.4          84.69
     1.211               -22.3          -2.89          76.17          53.25         -2.184         -14.94         -121.3          -13.8         -83.86          14.39          84.83
     1.252              -22.28         -2.807          76.05          53.22         -2.199         -14.87         -121.1         -13.68         -83.39          14.37           85.0
     1.292              -22.25          -2.71          75.91           53.2         -2.217          -14.8         -121.0         -13.54         -82.84          14.35          85.19
     1.332              -22.22         -2.599          75.74          53.17         -2.238         -14.71         -120.7         -13.37         -82.21          14.33           85.4
     1.373              -22.18         -2.468          75.55          53.13         -2.262          -14.6         -120.5         -13.18         -81.47          14.31          85.66
     1.413              -22.14         -2.314          75.32          53.09         -2.291         -14.47         -120.2         -12.96         -80.59          14.28          85.96
     1.453              -22.09          -2.13          75.05          53.04         -2.325         -14.33         -119.8         -12.69         -79.55          14.25          86.32
     1.494              -22.02         -1.911          74.73          52.98         -2.365         -14.15         -119.4         -12.37          -78.3          14.21          86.75
     1.534              -21.95         -1.645          74.33           52.9         -2.415         -13.93         -118.9         -11.98         -76.79          14.16          87.26
     1.575              -21.86          -1.32          73.86          52.81         -2.475         -13.67         -118.3         -11.51         -74.95           14.1           87.9
     1.615              -21.74        -0.9196          73.26           52.7         -2.549         -13.35         -117.5         -10.93         -72.68          14.03          88.68
     1.655               -21.6          -0.42          72.53          52.56         -2.642         -12.94         -116.5          -10.2         -69.84          13.94          89.66
     1.696              -21.43         0.2095           71.6          52.39         -2.758         -12.43         -115.3         -9.285         -66.27          13.82          90.88
     1.736               -21.2           1.01          70.42          52.17         -2.907         -11.78         -113.8          -8.12         -61.72          13.68          92.45
     1.776              -20.91          2.034          68.91          51.88         -3.097         -10.95         -111.8         -6.629         -55.91           13.5          94.44
     1.817              -20.54          3.348          66.97          51.52          -3.34         -9.888         -109.3         -4.716         -48.45          13.26          97.01
     1.857              -20.07          5.027          64.49          51.05         -3.652         -8.528         -106.1         -2.271         -38.92          12.95          100.3
     1.898              -19.48          7.138          61.38          50.47         -4.043         -6.818         -102.0         0.8018         -26.93          12.57          104.4
     1.938              -18.75           9.71          57.59          49.75          -4.52         -4.734         -97.05          4.547         -12.33          12.11          109.4
     1.978              -17.91          12.69          53.19          48.93         -5.073         -2.319         -91.31          8.888          4.599          11.57          115.2
     2.019               -17.0          15.92          48.42          48.03         -5.672          0.297          -85.1          13.59          22.93          10.98          121.5
     2.059               -16.1          19.15          43.66          47.13          -6.27          2.913         -78.89          18.29          41.26           10.4          127.8
     2.099              -15.26          22.13          39.26          46.31         -6.823          5.328         -73.15          22.63          58.19           9.86          133.7
      2.14              -14.53           24.7          35.47          45.59           -7.3          7.412          -68.2          26.38          72.79          9.395          138.7
      2.18              -13.94          26.81          32.36          45.01         -7.692          9.122         -64.13          29.45          84.77          9.013          142.8
     2.221              -13.47          28.49          29.88          44.54         -8.003          10.48          -60.9          31.89          94.31          8.709          146.1
     2.261               -13.1          29.81          27.94          44.18         -8.247          11.55         -58.37          33.81          101.8          8.472          148.6
     2.301              -12.81          30.83          26.43          43.89         -8.437          12.38          -56.4           35.3          107.6          8.286          150.6
     2.342              -12.58          31.63          25.25          43.67         -8.585          13.02         -54.86          36.46          112.1          8.142          152.2
     2.382               -12.4          32.26          24.32           43.5         -8.702          13.53         -53.65          37.38          115.7          8.028          153.4
